<svg width="1270" height="440" viewBox="0 0 1270 440" fill="none" xmlns="http://www.w3.org/2000/svg">
<g clip-path="url(#clip0_109_1446)">
<path d="M1131.32 323.368C1131.32 318.949 1132.43 314.898 1134.64 311.216C1136.85 307.451 1139.79 304.505 1143.48 302.378C1147.24 300.25 1151.25 299.186 1155.51 299.186H1171.1C1174.29 299.186 1177.23 300.004 1179.93 301.641C1182.72 303.278 1184.93 305.487 1186.56 308.27C1188.2 311.052 1189.02 314.039 1189.02 317.231V318.09C1189.02 321.2 1188.2 324.146 1186.56 326.928C1185.01 329.629 1182.84 331.838 1180.06 333.557C1177.36 335.194 1174.37 336.012 1171.1 336.012H1148.51V341.659C1148.51 343.459 1149.16 345.014 1150.47 346.323C1151.78 347.633 1153.38 348.287 1155.26 348.287H1190V359.581H1155.51C1151.25 359.581 1147.24 358.558 1143.48 356.512C1139.79 354.466 1136.85 351.602 1134.64 347.919C1132.43 344.237 1131.32 340.104 1131.32 335.521V323.368ZM1165.82 324.596C1167.45 324.596 1168.85 324.023 1169.99 322.877C1171.22 321.65 1171.83 320.218 1171.83 318.581V316.74C1171.83 315.021 1171.22 313.589 1169.99 312.443C1168.85 311.216 1167.45 310.602 1165.82 310.602H1155.26C1153.38 310.602 1151.78 311.257 1150.47 312.566C1149.16 313.876 1148.51 315.471 1148.51 317.354V324.596H1165.82Z" fill="black"/>
<path d="M1089.63 310.602C1088.48 310.602 1087.5 311.011 1086.68 311.83C1085.94 312.648 1085.58 313.63 1085.58 314.776V344.237C1085.58 345.382 1085.94 346.364 1086.68 347.183C1087.5 347.919 1088.48 348.287 1089.63 348.287H1124V359.581H1086.44C1083.16 359.581 1080.13 358.803 1077.35 357.248C1074.57 355.612 1072.36 353.443 1070.72 350.742C1069.17 347.96 1068.39 344.932 1068.39 341.659V317.354C1068.39 314.08 1069.21 311.052 1070.85 308.27C1072.48 305.487 1074.69 303.278 1077.47 301.641C1080.26 300.004 1083.24 299.186 1086.44 299.186H1124V310.602H1089.63Z" fill="black"/>
<path d="M1040.38 299.186C1043.58 299.186 1046.56 300.004 1049.35 301.641C1052.21 303.278 1054.46 305.487 1056.1 308.27C1057.73 311.052 1058.55 314.08 1058.55 317.354V359.581H1041.37V314.776C1041.37 313.63 1040.96 312.648 1040.14 311.83C1039.32 311.011 1038.34 310.602 1037.19 310.602H1021.36C1020.21 310.602 1019.23 311.011 1018.41 311.83C1017.67 312.648 1017.31 313.63 1017.31 314.776V359.581H1000.12V317.354C1000.12 314.08 1000.94 311.052 1002.58 308.27C1004.21 305.487 1006.38 303.278 1009.08 301.641C1011.86 300.004 1014.85 299.186 1018.04 299.186H1040.38Z" fill="black"/>
<path d="M990.353 341.536C990.353 344.728 989.535 347.715 987.898 350.497C986.343 353.198 984.175 355.366 981.392 357.003C978.692 358.64 975.664 359.458 972.308 359.458H946.899C943.707 359.458 940.72 358.64 937.938 357.003C935.237 355.366 933.068 353.198 931.432 350.497C929.795 347.715 928.977 344.728 928.977 341.536C928.977 338.181 929.795 335.153 931.432 332.453C933.068 329.67 935.237 327.501 937.938 325.947C940.72 324.31 943.707 323.492 946.899 323.492H973.168V314.776C973.168 313.63 972.759 312.648 971.94 311.83C971.204 311.012 970.263 310.602 969.117 310.602H933.273V299.309H972.431C975.623 299.309 978.569 300.127 981.27 301.764C984.052 303.319 986.261 305.488 987.898 308.27C989.535 310.971 990.353 313.999 990.353 317.354V341.536ZM946.039 344.114C946.039 345.26 946.448 346.242 947.267 347.06C948.085 347.879 949.067 348.288 950.213 348.288H969.117C970.263 348.288 971.204 347.879 971.94 347.06C972.759 346.242 973.168 345.26 973.168 344.114V334.908H950.213C949.067 334.908 948.085 335.317 947.267 336.135C946.448 336.872 946.039 337.813 946.039 338.958V344.114Z" fill="black"/>
<path d="M903.614 277.828C906.887 277.828 909.915 278.646 912.698 280.283C915.48 281.838 917.649 284.006 919.204 286.789C920.84 289.571 921.659 292.599 921.659 295.872V341.905C921.659 345.178 920.84 348.206 919.204 350.989C917.649 353.771 915.48 355.981 912.698 357.617C909.915 359.172 906.887 359.95 903.614 359.95H847.516V277.828H903.614ZM900.422 348.656C901.486 348.656 902.427 348.247 903.246 347.429C904.064 346.61 904.473 345.669 904.473 344.606V293.295C904.473 292.067 904.064 291.085 903.246 290.348C902.427 289.53 901.486 289.121 900.422 289.121H864.701V348.656H900.422Z" fill="black"/>
<path d="M817.048 299.186C820.24 299.186 823.227 300.004 826.009 301.641C828.874 303.278 831.124 305.487 832.761 308.27C834.397 311.052 835.216 314.08 835.216 317.354V359.581H818.03V314.776C818.03 313.63 817.621 312.648 816.803 311.83C815.984 311.011 815.002 310.602 813.857 310.602H798.021C796.876 310.602 795.894 311.011 795.075 311.83C794.339 312.648 793.971 313.63 793.971 314.776V359.581H776.785V317.354C776.785 314.08 777.603 311.052 779.24 308.27C780.877 305.487 783.046 303.278 785.746 301.641C788.529 300.004 791.516 299.186 794.707 299.186H817.048Z" fill="black"/>
<path d="M708.281 323.368C708.281 318.949 709.386 314.898 711.596 311.216C713.805 307.451 716.751 304.505 720.434 302.378C724.198 300.25 728.208 299.186 732.464 299.186H748.053C751.245 299.186 754.191 300.004 756.892 301.641C759.674 303.278 761.884 305.487 763.52 308.27C765.157 311.052 765.975 314.039 765.975 317.231V318.09C765.975 321.2 765.157 324.146 763.52 326.928C761.965 329.629 759.797 331.838 757.014 333.557C754.314 335.194 751.327 336.012 748.053 336.012H725.467V341.659C725.467 343.459 726.121 345.014 727.431 346.323C728.74 347.633 730.336 348.287 732.218 348.287H766.957V359.581H732.464C728.208 359.581 724.198 358.558 720.434 356.512C716.751 354.466 713.805 351.602 711.596 347.919C709.386 344.237 708.281 340.104 708.281 335.521V323.368ZM742.775 324.596C744.412 324.596 745.803 324.023 746.949 322.877C748.176 321.65 748.79 320.218 748.79 318.581V316.74C748.79 315.021 748.176 313.589 746.949 312.443C745.803 311.216 744.412 310.602 742.775 310.602H732.218C730.336 310.602 728.74 311.257 727.431 312.566C726.121 313.876 725.467 315.471 725.467 317.354V324.596H742.775Z" fill="black"/>
<path d="M647.082 277.091H664.268V319.072L682.558 299.186H703.426L679.243 325.701L700.848 359.458H682.067L668.196 337.854L664.268 342.273V359.581H647.082V277.091Z" fill="black"/>
<path d="M577.977 317.354C577.977 314.081 578.754 311.094 580.309 308.393C581.946 305.611 584.114 303.442 586.815 301.887C589.597 300.25 592.625 299.432 595.899 299.432H619.222C622.577 299.432 625.605 300.25 628.305 301.887C631.088 303.524 633.257 305.733 634.811 308.516C636.448 311.216 637.266 314.163 637.266 317.354V341.537C637.266 344.728 636.448 347.715 634.811 350.498C633.175 353.198 630.965 355.367 628.183 357.003C625.4 358.64 622.413 359.459 619.222 359.459H595.899C592.707 359.459 589.72 358.64 586.938 357.003C584.237 355.367 582.068 353.198 580.432 350.498C578.795 347.715 577.977 344.728 577.977 341.537V317.354ZM595.039 343.992C595.039 345.219 595.448 346.242 596.267 347.06C597.085 347.797 598.067 348.165 599.213 348.165H615.907C617.135 348.165 618.117 347.797 618.853 347.06C619.672 346.242 620.081 345.219 620.081 343.992V314.899C620.081 313.753 619.672 312.771 618.853 311.953C618.117 311.135 617.135 310.725 615.907 310.725H599.213C598.067 310.725 597.085 311.135 596.267 311.953C595.448 312.771 595.039 313.753 595.039 314.899V343.992Z" fill="black"/>
<path d="M531.548 288.998H500V277.582H580.403V288.998H548.856V359.949H531.548V288.998Z" fill="black"/>
<path d="M1032.57 149.345V132.009H1110.23V149.345H1078.33C1073.71 169.686 1066.08 187.023 1055.45 201.354C1067.01 201.354 1077.18 200.66 1085.96 199.273C1084.11 189.103 1081.34 178.239 1077.64 166.681H1096.36C1101.91 181.937 1106.3 197.655 1109.54 213.836C1120.17 196.269 1125.26 164.832 1124.8 119.527H1110.93V102.19H1124.8V80H1149.07V94.5625V102.19H1189.98V211.062C1190.44 228.63 1182.35 237.182 1165.71 236.72H1146.99V220.77H1158.08C1163.63 221.233 1166.17 218.228 1165.71 211.756V119.527H1148.37C1147.91 153.275 1144.91 178.008 1139.36 193.726C1134.27 209.444 1123.41 225.162 1106.77 240.881V222.851H1090.12C1090.12 222.388 1090.12 221.464 1090.12 220.077C1089.66 218.69 1089.43 217.534 1089.43 216.61C1073.71 218.459 1055.22 219.384 1033.95 219.384V200.66C1043.66 184.018 1050.13 166.912 1053.37 149.345H1032.57ZM1040.19 107.045V90.4018H1104.69V107.045H1040.19Z" fill="black"/>
<path d="M861.98 144.491V86.241H913.988V125.074C914.451 136.169 910.521 142.41 902.2 143.797V161.827H913.295V177.776H902.2V208.982C904.049 208.519 906.36 207.826 909.134 206.901C912.37 205.977 914.682 205.283 916.069 204.821V221.464C896.19 229.323 875.617 234.639 854.352 237.413V217.997L859.899 217.303V154.893H876.542V215.223L882.783 213.836V144.491H861.98ZM924.39 141.717C919.767 129.697 916.762 115.828 915.375 100.11H932.018C932.943 114.441 935.254 127.848 938.953 140.33V80.6934H959.756V214.529C960.218 229.785 952.822 237.182 937.566 236.72H916.069V220.77H929.938C936.41 221.233 939.415 217.997 938.953 211.062V141.717H924.39ZM990.961 236.72C976.168 237.644 969.002 230.479 969.464 215.223V80.6934H989.574V211.755C989.574 218.228 992.81 221.464 999.283 221.464H1014.54V236.72H990.961ZM990.268 141.717C994.429 128.773 996.74 115.366 997.202 101.497H1015.23C1013.85 115.828 1010.84 129.235 1006.22 141.717H990.268ZM1015.23 198.58C1008.76 188.872 1001.36 180.319 993.042 172.922V150.732C1002.75 155.355 1010.15 161.134 1015.23 168.068V198.58ZM914.682 197.886V172.922C921.154 168.299 928.32 160.44 936.179 149.345V175.696C932.018 183.555 924.852 190.952 914.682 197.886ZM881.396 129.235H889.718C893.416 129.235 895.265 127.155 895.265 122.994V101.497H881.396V129.235Z" fill="black"/>
<path d="M678.91 154.893V136.863H837.017V154.893H793.329V209.675C792.867 216.147 795.872 219.152 802.344 218.69H805.812C812.746 219.152 815.982 216.379 815.52 210.369V202.047H836.323V214.529C836.786 228.398 828.695 235.333 812.053 235.333H792.636C775.069 236.257 766.516 227.705 766.978 209.675V154.893H742.708V160.44C745.019 199.273 724.447 225.625 680.991 239.494V222.851C705.955 210.369 717.743 189.796 716.356 161.134V154.893H678.91ZM692.779 105.658V87.6279H823.148V105.658H692.779Z" fill="black"/>
<path d="M547.848 134.089V116.753H622.741V134.089H547.848ZM511.789 234.639V145.184H500V128.541H535.366V204.821C540.451 202.509 545.305 199.967 549.928 197.193V215.916C537.909 224.238 525.195 230.479 511.789 234.639ZM515.949 116.753C513.176 103.808 509.015 92.0196 503.467 81.3867H527.045C532.13 92.4819 536.291 104.271 539.527 116.753H515.949ZM610.259 238.8V222.851H619.967C626.901 222.851 630.138 219.383 629.675 212.449V102.884H552.009V86.2409H653.946V213.836C653.946 230.479 646.087 238.8 630.369 238.8H610.259ZM574.893 198.58H588.762C594.309 198.58 597.083 195.806 597.083 190.258V164.601H574.893V198.58ZM554.089 214.529V147.958H617.887V190.258C618.349 206.901 610.721 214.992 595.003 214.529H554.089Z" fill="black"/>
<path d="M189 142H82.789C81.4198 142 80.4555 140.655 80.8947 139.358L96.8591 92.2255C99.3344 84.9175 106.192 80 113.908 80H351.388C354.459 80 357.524 80.2103 360.551 80.7261C366.545 81.7474 377.179 83.7907 384.5 86.5C425.04 101.504 448.5 140 456 171C463.5 202 462 254.5 420.5 307C379 359.5 314 360.5 312 360.5H205.767C204.399 360.5 203.451 359.159 203.886 357.863L222.567 302.275C223.123 300.623 224.677 299.52 226.42 299.545C237.729 299.703 260.558 299.865 281 299.5C309 299 316 298.5 340 285.5C364 272.5 390.5 232.5 382 189.5C375.2 155.1 345.5 143.5 331.5 142H258.992C251.236 142 244.351 146.969 241.908 154.331L177.592 348.169C175.149 355.531 168.264 360.5 160.508 360.5H103.753C102.394 360.5 101.418 359.214 101.838 357.922C119.626 303.19 154.669 194.961 159 180C163.4 164.8 180.833 148.333 189 142Z" fill="black"/>
<path d="M263 244L278 196" stroke="black" stroke-width="25" stroke-linecap="round"/>
<path d="M310 244L325 196" stroke="black" stroke-width="25" stroke-linecap="round"/>
</g>
<defs>
<clipPath id="clip0_109_1446">
<rect width="1270" height="440" rx="80" fill="white"/>
</clipPath>
</defs>
</svg>
