<svg xmlns="http://www.w3.org/2000/svg" xmlns:xlink="http://www.w3.org/1999/xlink" fill="none" version="1.1" width="92" height="32" viewBox="0 0 92 32"><g><g><path d="M68.0284,12.7817L73.1493,12.7817L73.1493,4.36344L81.9785,4.36344L84.1857,1.19003L80.9632,1.19003L80.5217,1.85117L73.1935,1.85117C73.2224,1.46959,73.2666,1.16113,73.3259,0.925587C73.3846,0.690781,73.4508,0.506859,73.5246,0.374662C73.5977,0.242465,73.6936,0.117771,73.8115,0L68.0284,0L68.0284,1.85117L58.184,1.85117L58.184,4.36344L68.0284,4.36344L68.0284,12.7817ZM52.6658,0.0881768L53.946,1.41041L53.946,2.42413L56.2857,1.45447L56.2857,4.67194L53.946,5.64165L53.946,29.1336C53.946,29.898,53.6956,30.5516,53.1955,31.0949C52.6948,31.6389,52.0919,31.9103,51.3856,31.9103L44.0132,31.9103L45.5141,29.3539L47.0593,29.3539C47.5297,29.3539,47.927,29.1777,48.2512,28.8251C48.5747,28.4725,48.7368,28.0317,48.7368,27.5028L48.7368,20.0982L44.7637,21.4205L44.7637,18.8641L48.7368,17.2333L48.7368,7.40459L43.9691,9.38796L43.9691,6.479L48.7368,4.36343L48.7368,2.86483L46.3971,0.0881768L52.6658,0.0881768ZM86.5158,1.16459L90.359,1.16459L90.359,2.53691L86.5158,2.53691L86.5158,1.16459ZM90.8078,1.16459L92,1.16459L92,2.53691L90.8078,2.53691L90.8078,1.16459ZM24.2139,4.82624C23.7869,5.07621,23.4558,5.40681,23.2206,5.81793L23.2206,20.7153L17.9231,20.7153L17.9231,1.63081L23.2206,1.63081L23.2206,2.77677C23.8676,2.24788,24.545,1.92489,25.2513,1.80712C25.9576,1.69003,26.4433,1.63081,26.7081,1.63081L39.9076,1.63081C39.7014,1.92489,39.5469,2.24788,39.4442,2.60051C39.3407,2.95309,39.2897,3.42343,39.2897,4.01087L39.2897,21.2001L33.9921,21.2001L33.9921,4.14307L27.1496,4.14307C26.5315,4.17271,25.9942,4.23125,25.5382,4.31938C25.0816,4.40757,24.6402,4.5769,24.2139,4.82624ZM15.1419,19.4371L15.0978,19.3931L15.1419,19.3931L15.1419,3.83455C15.1419,3.42343,15.164,3.08528,15.2081,2.82088C15.2523,2.55639,15.3033,2.35117,15.3626,2.20381C15.4213,2.05708,15.4951,1.91041,15.5834,1.763L0.75041,1.763L0.75041,4.27531L9.80031,4.27531L9.80031,17.9385L7.94617,19.5693L6.04792,17.9385L6.04792,13.9512L0.75041,13.9512L0.75041,19.3931L4.5911,22.5664L0,26.6654L0,31.9103L7.99033,25.2991L16.069,31.9103L16.069,26.6654L11.3454,22.5664L15.1419,19.4371ZM89.6716,6.05174L86.5158,6.05174L86.5158,7.41003L90.3449,7.41003L90.3449,5.12751L89.7839,4.73535L90.3449,4.73535L90.3449,3.36306L86.5158,3.36306L86.5158,4.73535L89.6716,4.73535L89.6716,6.05174ZM65.6004,5.50947L65.6004,8.41837L57.7425,13.487L57.6984,10.1373L60.3913,8.02168L60.3913,5.50947L65.6004,5.50947ZM81.3163,8.02168L84.0092,10.1373L83.9651,13.487L76.1071,8.41837L76.1071,5.50947L81.3163,5.50947L81.3163,8.02168ZM6.65513,8.82344C6.65734,8.77849,6.65845,8.73351,6.65845,8.6885C6.65845,8.6435,6.65734,8.59852,6.65513,8.55357C6.65293,8.50862,6.64961,8.46375,6.6452,8.41896C6.64078,8.37417,6.63526,8.32951,6.62864,8.28499C6.62201,8.24047,6.6143,8.19614,6.60551,8.152C6.59671,8.10786,6.58684,8.06396,6.57591,8.0203C6.56494,7.97664,6.55292,7.93328,6.53985,7.89022C6.52677,7.84715,6.51263,7.80443,6.49742,7.76205C6.48224,7.71967,6.46603,7.67769,6.44879,7.63612C6.43155,7.59454,6.41328,7.5534,6.394,7.51272C6.37472,7.47203,6.35446,7.43185,6.33321,7.39216C6.31196,7.35246,6.28975,7.31331,6.26657,7.27471C6.2434,7.23611,6.21929,7.19809,6.19425,7.16067C6.1692,7.12325,6.14325,7.08647,6.1164,7.05032C6.08955,7.01417,6.06182,6.9787,6.03323,6.94391C6.00463,6.90912,5.97519,6.87505,5.94492,6.8417C5.91465,6.80836,5.88357,6.77577,5.8517,6.74395C5.81982,6.71212,5.78719,6.6811,5.75379,6.65087C5.72038,6.62065,5.68626,6.59126,5.65141,6.56271C5.61657,6.53416,5.58104,6.50648,5.54484,6.47967C5.50863,6.45286,5.47178,6.42695,5.4343,6.40195C5.39682,6.37694,5.35875,6.35287,5.32008,6.32973C5.28142,6.3066,5.24221,6.28442,5.20245,6.2632C5.16269,6.24199,5.12244,6.22176,5.08169,6.20252C5.04094,6.18327,4.99974,6.16504,4.9581,6.14782C4.91645,6.13059,4.87441,6.1144,4.83196,6.09924C4.78952,6.08408,4.74673,6.06996,4.70359,6.0569C4.66045,6.04383,4.61702,6.03183,4.5733,6.0209C4.52957,6.00996,4.4856,6.0001,4.44138,5.99132C4.39717,5.98254,4.35277,5.97485,4.30818,5.96825C4.26359,5.96164,4.21887,5.95614,4.17401,5.95173C4.12914,5.94731,4.0842,5.944,4.03918,5.9418C3.99415,5.93959,3.9491,5.93848,3.90402,5.93848C3.85895,5.93848,3.81389,5.93959,3.76887,5.9418C3.72385,5.944,3.6789,5.94731,3.63404,5.95173C3.58918,5.95614,3.54445,5.96164,3.49987,5.96825C3.45527,5.97485,3.41087,5.98254,3.36666,5.99132C3.32245,6.0001,3.27848,6.00996,3.23475,6.0209C3.19102,6.03183,3.14759,6.04383,3.10446,6.0569C3.06132,6.06996,3.01852,6.08408,2.97608,6.09924C2.93364,6.1144,2.89159,6.13059,2.84995,6.14782C2.8083,6.16504,2.7671,6.18327,2.72635,6.20252C2.6856,6.22176,2.64535,6.24199,2.60559,6.2632C2.56584,6.28442,2.52663,6.3066,2.48796,6.32973C2.4493,6.35287,2.41122,6.37694,2.37374,6.40195C2.33626,6.42695,2.29942,6.45286,2.26321,6.47967C2.22701,6.50648,2.19148,6.53416,2.15663,6.56271C2.12179,6.59126,2.08766,6.62065,2.05426,6.65087C2.02086,6.6811,1.98822,6.71212,1.95635,6.74395C1.92447,6.77577,1.8934,6.80836,1.86312,6.8417C1.83285,6.87505,1.80342,6.90912,1.77482,6.94391C1.74622,6.9787,1.7185,7.01417,1.69165,7.05032C1.66479,7.08647,1.63884,7.12325,1.6138,7.16067C1.58875,7.19809,1.56464,7.23611,1.54147,7.27471C1.51829,7.31331,1.49608,7.35246,1.47483,7.39216C1.45358,7.43185,1.43332,7.47203,1.41405,7.51272C1.39477,7.5534,1.37651,7.59454,1.35926,7.63612C1.34201,7.67769,1.32579,7.71967,1.3106,7.76205C1.29542,7.80443,1.28128,7.84715,1.2682,7.89022C1.25511,7.93328,1.24309,7.97664,1.23214,8.0203C1.22119,8.06396,1.21131,8.10786,1.20252,8.152C1.19372,8.19614,1.18602,8.24047,1.1794,8.28499C1.17279,8.32951,1.16727,8.37417,1.16286,8.41896C1.15844,8.46375,1.15512,8.50862,1.15291,8.55357C1.1507,8.59852,1.14959,8.6435,1.14959,8.6885C1.14959,8.73351,1.1507,8.77849,1.15291,8.82344C1.15512,8.86839,1.15844,8.91326,1.16286,8.95805C1.16727,9.00284,1.17279,9.0475,1.1794,9.09202C1.18602,9.13653,1.19372,9.18086,1.20252,9.22501C1.21131,9.26915,1.22119,9.31305,1.23214,9.3567C1.24309,9.40036,1.25511,9.44372,1.2682,9.48679C1.28128,9.52986,1.29542,9.57258,1.3106,9.61495C1.32579,9.65733,1.34201,9.69931,1.35926,9.74089C1.37651,9.78247,1.39477,9.8236,1.41405,9.86429C1.43332,9.90497,1.45358,9.94516,1.47483,9.98485C1.49608,10.0245,1.51829,10.0637,1.54147,10.1023C1.56464,10.1409,1.58875,10.1789,1.6138,10.2163C1.63884,10.2538,1.66479,10.2905,1.69165,10.3267C1.7185,10.3628,1.74622,10.3983,1.77482,10.4331C1.80342,10.4679,1.83285,10.502,1.86312,10.5353C1.8934,10.5687,1.92447,10.6012,1.95635,10.6331C1.98822,10.6649,2.02086,10.6959,2.05426,10.7261C2.08766,10.7564,2.12179,10.7857,2.15663,10.8143C2.19148,10.8429,2.22701,10.8705,2.26321,10.8973C2.29942,10.9242,2.33626,10.9501,2.37374,10.9751C2.41122,11.0001,2.4493,11.0241,2.48796,11.0473C2.52663,11.0704,2.56584,11.0926,2.60559,11.1138C2.64535,11.135,2.6856,11.1553,2.72635,11.1745C2.7671,11.1937,2.8083,11.212,2.84995,11.2292C2.89159,11.2464,2.93364,11.2626,2.97608,11.2778C3.01852,11.2929,3.06132,11.3071,3.10446,11.3201C3.14759,11.3332,3.19102,11.3452,3.23475,11.3561C3.27848,11.367,3.32245,11.3769,3.36666,11.3857C3.41087,11.3945,3.45527,11.4021,3.49986,11.4088C3.54445,11.4154,3.58918,11.4209,3.63404,11.4253C3.6789,11.4297,3.72385,11.433,3.76887,11.4352C3.81389,11.4374,3.85895,11.4385,3.90402,11.4385C3.9491,11.4385,3.99415,11.4374,4.03918,11.4352C4.0842,11.433,4.12914,11.4297,4.17401,11.4253C4.21887,11.4209,4.26359,11.4154,4.30818,11.4088C4.35277,11.4021,4.39717,11.3945,4.44138,11.3857C4.4856,11.3769,4.52957,11.367,4.5733,11.3561C4.61702,11.3452,4.66045,11.3332,4.70359,11.3201C4.74673,11.3071,4.78952,11.2929,4.83196,11.2778C4.87441,11.2626,4.91645,11.2464,4.9581,11.2292C4.99974,11.212,5.04094,11.1937,5.08169,11.1745C5.12244,11.1553,5.16269,11.135,5.20245,11.1138C5.24221,11.0926,5.28142,11.0704,5.32008,11.0473C5.35875,11.0241,5.39682,11.0001,5.4343,10.9751C5.47178,10.9501,5.50863,10.9242,5.54484,10.8973C5.58104,10.8705,5.61657,10.8429,5.65141,10.8143C5.68626,10.7857,5.72038,10.7564,5.75379,10.7261C5.78719,10.6959,5.81983,10.6649,5.8517,10.6331C5.88357,10.6012,5.91465,10.5687,5.94492,10.5353C5.9752,10.502,6.00463,10.4679,6.03323,10.4331C6.06182,10.3983,6.08955,10.3628,6.1164,10.3267C6.14325,10.2905,6.1692,10.2538,6.19425,10.2163C6.21929,10.1789,6.2434,10.1409,6.26657,10.1023C6.28975,10.0637,6.31196,10.0245,6.33321,9.98485C6.35446,9.94516,6.37472,9.90497,6.394,9.86429C6.41328,9.8236,6.43155,9.78247,6.44879,9.74089C6.46603,9.69931,6.48224,9.65733,6.49742,9.61496C6.51263,9.57258,6.52677,9.52986,6.53985,9.48679C6.55292,9.44372,6.56494,9.40036,6.57591,9.3567C6.58684,9.31305,6.59671,9.26915,6.60551,9.22501C6.6143,9.18086,6.62201,9.13653,6.62864,9.09202C6.63526,9.0475,6.64078,9.00284,6.6452,8.95805C6.64961,8.91326,6.65293,8.86839,6.65513,8.82344ZM31.1226,9.34388L31.1226,9.21163C31.1226,8.65378,31.1668,8.19104,31.255,7.82331C31.3433,7.45625,31.4902,7.11117,31.6965,6.78755L25.7369,6.78755L25.7369,20.1863L17.6582,27.018L17.6582,31.9102L31.0343,21.9493L31.1226,9.34388ZM88.8021,9.42656L89.6857,9.42656L89.6857,12.0732L90.3589,12.0732L90.3589,8.05424L88.1147,8.05424L88.1147,10.7148L87.175,10.7148L87.175,7.91422L86.5158,8.18025L86.5158,12.0592L88.8021,12.0592L88.8021,9.42656ZM86.5158,12.8994L90.359,12.8994L90.359,14.2717L86.5158,14.2717L86.5158,12.8994ZM90.8078,12.8994L92,12.8994L92,14.2717L90.8078,14.2717L90.8078,12.8994ZM58.184,14.5007L58.184,27.4587L80.2127,27.4587C80.9776,27.4587,81.6398,27.2019,82.1992,26.6874C82.7579,26.1737,83.0379,25.5491,83.0379,24.8142L83.0379,16.8807C83.0379,16.3229,83.089,15.8671,83.1925,15.5144C83.2953,15.1618,83.4497,14.8244,83.656,14.5007L66.1302,14.5007C65.8356,14.5007,65.4017,14.5599,64.8279,14.677C64.254,14.7948,63.7022,15.0888,63.1724,15.5585L63.1724,14.5007L58.184,14.5007ZM85.7023,14.9299L85.0291,15.294L85.0291,19.187L90.359,19.187L90.359,15.0979L86.5158,15.0979L86.5158,17.4365L87.0909,17.8146L85.7023,17.8146L85.7023,14.9299ZM87.2031,16.4703L89.6716,16.4703L89.6716,17.8146L87.2031,17.8146L87.2031,16.4703ZM63.9891,17.6301C64.2981,17.4248,64.6072,17.2774,64.9162,17.1893C65.2252,17.1011,65.5708,17.0426,65.9536,17.013L78.8371,17.013L78.8371,23.1834C78.8371,23.6538,77.6446,24.065,77.2769,24.4175C76.9086,24.7702,76.4603,24.9465,75.9305,24.9465L64.85,24.9465L63.1724,26.6213L63.1724,18.5115C63.4076,18.13,63.6801,17.8359,63.9891,17.6301ZM89.6716,22.4217L86.5158,22.4217L86.5158,23.794L90.359,23.794L90.359,21.1334L92,21.1334L92,19.761L86.5158,19.761L86.5158,21.1334L89.6716,21.1334L89.6716,22.4217ZM76.959,19.9386L64.5641,19.9386L64.5641,22.4386L76.959,22.4386L76.959,19.9386ZM35.14,29.0675C34.9337,28.8471,34.831,28.5902,34.831,28.2962L34.831,24.5939C34.831,24.359,34.853,24.1607,34.8972,23.9989C34.9413,23.8377,34.9854,23.7124,35.0296,23.6242C35.0737,23.5361,35.1179,23.463,35.1621,23.4038C35.2062,23.3454,35.2572,23.3013,35.3165,23.2716L34.6985,23.2716L29.5776,23.3157L29.5776,29.6184C29.5776,30.2651,29.7983,30.8016,30.2398,31.2272C30.6813,31.6534,31.2255,31.8814,31.8732,31.9103L40.1284,31.9103L40.1284,29.398L35.8905,29.398C35.5959,29.398,35.3455,29.2879,35.14,29.0675ZM86.5158,24.9703L86.5158,27.2248L87.175,27.5189L87.175,26.3427L89.6716,26.3427L89.6716,27.3649L90.3449,27.3649L90.3449,26.3427L91.6072,26.3427L91.6072,24.9703L90.3449,24.9703L90.3449,24.2281L89.6716,24.2281L89.6716,24.9703L86.5158,24.9703ZM88.8021,29.3534L89.6857,29.3534L89.6857,32L90.3589,32L90.3589,27.981L88.1147,27.981L88.1147,30.6416L87.175,30.6416L87.175,27.841L86.5158,28.1071L86.5158,31.986L88.8021,31.986L88.8021,29.3534ZM57.2569,31.9103L84.2741,31.9103L84.2741,29.398L57.2569,29.398L57.2569,31.9103Z" fill-rule="evenodd" fill="#000000" fill-opacity="1"/></g><g><path d="M6.52944,8.75775Q6.52944,8.893229999999999,6.51613,9.02805Q6.50281,9.16288,6.47632,9.29576Q6.44982,9.42863,6.41039,9.55828Q6.37097,9.68793,6.31899,9.813089999999999Q6.26701,9.93826,6.20299,10.057739999999999Q6.13896,10.17722,6.0635,10.28987Q5.98804,10.402519999999999,5.90188,10.507249999999999Q5.81571,10.61197,5.71967,10.70777Q5.62363,10.80357,5.51864,10.889520000000001Q5.41365,10.97546,5.30072,11.05073Q5.18778,11.126000000000001,5.068,11.18986Q4.94822,11.253730000000001,4.82273,11.30557Q4.69725,11.357420000000001,4.56728,11.39675Q4.4373000000000005,11.43608,4.30409,11.46251Q4.17088,11.48894,4.03571,11.502220000000001Q3.90054,11.5155,3.76472,11.5155Q3.6289,11.5155,3.49373,11.502220000000001Q3.35856,11.48894,3.22535,11.46251Q3.09214,11.43608,2.96216,11.39675Q2.8321899999999998,11.357420000000001,2.70671,11.30557Q2.58122,11.253730000000001,2.46144,11.18986Q2.34166,11.126000000000001,2.22872,11.05073Q2.11579,10.97546,2.0107999999999997,10.889520000000001Q1.905809,10.80357,1.809768,10.70777Q1.713727,10.61197,1.6275629999999999,10.50724Q1.541398,10.402519999999999,1.465939,10.28987Q1.390481,10.17722,1.326455,10.057739999999999Q1.262429,9.93826,1.210452,9.813089999999999Q1.158475,9.68793,1.119048,9.55828Q1.0796209,9.42863,1.0531233,9.29576Q1.0266258,9.16288,1.0133129,9.02805Q1,8.893229999999999,1,8.75775Q1,8.62227,1.0133129,8.48744Q1.0266258,8.35261,1.0531233,8.21974Q1.0796209,8.08686,1.119048,7.9572199999999995Q1.158475,7.82757,1.210452,7.7024Q1.262429,7.57724,1.326455,7.45775Q1.390481,7.33827,1.465939,7.22563Q1.541398,7.11298,1.6275629999999999,7.00825Q1.713727,6.903524,1.809768,6.807726Q1.905809,6.711927,2.0107999999999997,6.62598Q2.11579,6.540033,2.22872,6.464764Q2.34166,6.389496,2.46144,6.325631Q2.58122,6.261767,2.70671,6.209921Q2.8321899999999998,6.158075,2.96216,6.118748Q3.09214,6.0794201,3.22535,6.0529893Q3.35856,6.0265586,3.49373,6.0132793Q3.6289,6,3.76472,6Q3.90054,6,4.03571,6.0132793Q4.17088,6.0265586,4.30409,6.0529893Q4.4373000000000005,6.0794201,4.56728,6.118748Q4.69725,6.158075,4.82273,6.209921Q4.94822,6.261767,5.068,6.325631Q5.18778,6.389496,5.30072,6.464764Q5.41365,6.540033,5.51864,6.62598Q5.62363,6.711927,5.71967,6.807726Q5.81571,6.903524,5.90188,7.00825Q5.98804,7.11298,6.0635,7.22563Q6.13896,7.33827,6.20299,7.45775Q6.26701,7.57724,6.31899,7.7024Q6.37097,7.82757,6.41039,7.9572199999999995Q6.44982,8.08686,6.47632,8.21974Q6.50281,8.35261,6.51613,8.48744Q6.52944,8.62227,6.52944,8.75775Z" fill="#3AAF78" fill-opacity="1" style="mix-blend-mode:passthrough"/></g></g></svg>